<?xml version="1.0" encoding="UTF-8"?>
<svg width="990" height="990" version="1.1" viewBox="0 0 9900 9900" xmlns="http://www.w3.org/2000/svg"><rect width="9900" height="9900" fill="#fff"/><path transform="scale(10)" d="m367 225.8c-73.2 0.1-119.6 2.3992-187.5 9.1992-5.5 0.5-14 1.2992-19 1.6992-12.4 1.1-13.5 1.9008-13.5 9.3008 0 3.9 0.5 6.4004 1.5 7.4004 2.1 2.1 4.3996 8.6996 3.5996 10.6-0.3 0.9-1.4004 2.5-2.4004 3.5-0.9 1.1-3 3.3996-4.5 5.0996-1.6 1.7-3.3996 4.5012-4.0996 6.2012-0.8 1.8-1.6996 3.1992-2.0996 3.1992s-1.3 1.4-2 3c-0.7 1.7-1.6 3-2 3-0.3 0-1.7 2.2-3 5-1.3 2.7-2.6 5-3 5s-1.7 2.2-3 5c-1.3 2.7-2.6 5-3 5s-2.2 3.3008-4 7.3008c-1.8 3.9-4 8.0992-5 9.1992-2.9 3.5-15.2 29.799-18.1 38.699-1.9 6.1-3.7 10.001-5 10.801-1.9 1.3-7.9004 22.1-7.9004 27.4 0 5.5-0.49961 7.9996-4.0996 22.1-1.2 4.8-1.8008 10.899-1.8008 19.199 0 6.8-0.49961 13.101-1.0996 14.201-0.5 1.1-1 8.3-1 16.5 0 13.6-0.099609 14.7-2.0996 16.4-1.1 0.9-2.9004 3.2992-3.9004 5.1992s-3.0004 4.8008-4.4004 6.3008c-4.1 4.4-5.2 6.4996-8.5 16.1-1.7 5-3.8988 10.1-4.7988 11.5s-2.1 4.7004-2.5 7.4004c-0.4 2.6-1.3008 7.1-1.8008 10-3.9 19.1-5.1992 32.999-5.1992 55.699-0.1 10.8 0.39961 20.8 1.0996 24 2.8 12.9 3.3004 15.899 3.9004 23.199 0.9 10.4 3.0984 12.701 13.398 14.201l7.3008 1.0996-0.40039 7.5996c-0.1 4.3 0.20117 9.2 0.70117 11 0.6 1.9 1.5988 5.4004 2.2988 7.9004s2.2996 6.5996 3.5996 9.0996c1.3 2.6 2.3008 5.2012 2.3008 5.7012 0 0.6 0.30078 1.1984 0.80078 1.3984 0.4 0.2 1.7 2.3008 3 4.8008 5.9 11.9 14.898 22 26.398 29.5 9.5 6.3 24.301 13.2 31.301 14.5 3.3 0.6 7.6 1.5996 9.5 2.0996 4.2 1.2 45.3 0.60117 52.5-0.79883 2.8-0.5 5.9992-1.5016 7.1992-2.1016 1.2-0.7 3.3012-1.1992 4.7012-1.1992s2.5996-0.40039 2.5996-0.90039 1.3992-1.4992 3.1992-2.1992 4.6012-2.5 6.2012-4c1.7-1.4 4.2988-2.9008 5.7988-3.3008 1.5-0.3 3.3-1.2 4-2 0.8-0.7 2.7008-2.0004 4.3008-2.9004 4.3-2.2 10.1-8.5984 11.9-12.898 0.9-2 2.9988-4.7004 4.7988-5.9004 4.4-3.1 5.0004-3.9004 10.9-15.4 2.9-5.5 5.3996-10.2 5.5996-10.5 0.5-0.5 15.601-2.1004 18.301-1.9004 0.8 0.1 31.7 0.5 68.5 1 36.9 0.5 81.6 1.3004 99.5 1.9004s51.6 1.5 75 2 56.7 1.4 74 2c71.1 2.3 77.499 2.3 82.699 0 2.7-1.2 6.7004-2 9.9004-2 4.4 0 5.8004 0.5 7.9004 2.5 1.4 1.4 2.5 3.4004 2.5 4.4004s0.9 2.7996 2 4.0996 2 2.8992 2 3.6992c0 1.9 5.9008 13.301 6.8008 13.301 0.8 0 5.6996 7.0992 8.0996 11.699 0.6 1.3 2.5988 3.0004 4.2988 3.9004s5.9008 4.5 9.3008 8c3.7 3.8 7.0008 6.4004 8.3008 6.4004 1.1 0 2.6984 0.60078 3.3984 1.3008 0.7 0.8 2.3004 1.9 3.4004 2.5 4 2.1 23.3 8.1992 26.1 8.1992 1.5 0 3.5008 0.5 4.3008 1 1.8 1.2 34.9 0.70078 43.5-0.69922 11.2-1.9 24.7-7.0004 29.6-11.4 2.4-2.2 5.4-4.5012 6.5-5.2012 11.3-6.4 20.4-13.4 20.4-15.6 0-0.8 1.6004-2.8992 7.9004-10.699 2.5-3.1 6-11.1 10.5-24.4 1.6-4.6 3.0004-6.9 4.9004-8 2.4-1.3 2.7996-1.2992 5.5996 0.80078 4.9 3.6 18.7 2.7 24-1.5 0.3-0.2 0.79922-2.9016 1.1992-6.1016 0.4-3.1 1.3004-8.1992 1.9004-11.199 1.9-8.9 3.1996-22.8 3.0996-34-0.1-30-3.6-60-7-60-2 0-3.5992-6.4-4.1992-17-0.3-6.7-1.5004-15-2.9004-20-1.2-4.7-2.5004-11-2.9004-14-0.8-5.4-2.6004-11-3.9004-12-0.4-0.3-2.6-4.3-5-9-2.8-5.7-6.3992-10.801-10.699-15.301-3.5-3.7-7.1996-7.9996-8.0996-9.5996-0.9-1.5-3.6-3.8-6-5-2.4-1.1-4.4004-2.5-4.4004-3s-3.1-2.7996-7-5.0996c-3.8-2.3-7-4.6-7-5s-0.99922-1.0992-2.1992-1.6992c-1.3-0.6-5.1-3.5016-8.5-6.6016-3.4-3-7.1012-5.7992-8.2012-6.1992-1.1-0.3-2.2996-1.4996-2.5996-2.5996-0.4-1-1.9996-2.6-3.5996-3.5-1.6-0.8-5.4-3.7004-8.5-6.4004-3-2.8-5.9004-5-6.4004-5-0.6 0-3.0992-1.9996-5.6992-4.5996-4.5-4.3-5.0012-4.5004-10.201-4.4004-5.7 0.1-14.199-1.1-17.299-2.5-1-0.4-1.8008-1.5996-1.8008-2.5996 0-2-0.59922-2.9-5.1992-8-1.6-1.6-2.8008-3.9004-2.8008-4.9004 0-1.1-0.7-2-1.5-2s-1.5-0.40078-1.5-0.80078c0-1.8-3.8008-5.1992-7.3008-6.6992-2-0.8-6.5992-1.5-10.199-1.5-7.3 0-11.5-1.6-15.1-6-1.3-1.5-3.7004-3.3-5.4004-4-1.6-0.7-3-1.6-3-2s-1.3-1.3-3-2c-1.6-0.7-3-1.5996-3-2.0996 0-0.4-0.9-1.1004-2-1.4004-1.1-0.4-3.7008-2.4992-5.8008-4.6992-2-2.2-4.9992-4.7-6.6992-5.5-1.6-0.9-3.4008-2.2004-3.8008-2.9004-0.4-0.8-2.2-2.1-4-3s-3.6-2.3-4-3c-0.4-0.8-2.2-2.1-4-3-1.7-0.9-4-2.6996-5-4.0996-1-1.3-3.2984-3.1004-4.8984-3.9004-1.7-0.9-4.2004-2.9004-5.4004-4.4004-1.3-1.5-3.7004-3.3-5.4004-4-1.6-0.7-3-1.5996-3-2.0996 0-0.4-0.9-1.1004-2-1.4004-1.1-0.4-3.8996-2.6-6.0996-5s-5.4-4.9-7-5.5c-1.6-0.7-2.9004-1.5996-2.9004-2.0996 0-0.4-0.89961-1.1004-2.0996-1.4004-1.1-0.4-3.3-2.1004-5-3.9004-1.6-1.8-5.1008-4.2996-7.8008-5.5996-5.8-2.6-7.1992-5.1-8.1992-14-0.5-3.6-1.3004-9.4-1.9004-13-1.7-10.6-4.7004-31.8-5.9004-42-1.5-12.7-1.6992-13-6.6992-13-3.8 0-4.4 0.3-5 2.5-0.7 2.8-0.10039 7.8 1.5996 14.5 1.1 4.3 1.9 9.5 4 26 2.3 18 2.8 21.6 3.5 23.9 0.7 1.9 0.50039 2.1996-0.59961 1.5996-0.8-0.5-1.8996-1.5996-2.5996-2.5996-0.7-0.9-2.6008-2.2004-4.3008-2.9004-1.6-0.7-3-1.6-3-2s-1.3-1.3-3-2c-1.6-0.7-3-1.6-3-2s-1.3-1.3-3-2c-1.6-0.7-3-1.6-3-2s-1.1992-1.2004-2.6992-1.9004-3.3-2.1-4-3c-0.7-1-2.6008-2.3996-4.3008-3.0996-1.6-0.7-3-1.6-3-2s-1.3-1.3-3-2c-1.6-0.7-3-1.6-3-2s-1.3-1.3-3-2c-1.6-0.7-3-1.6-3-2s-1.3-1.3-3-2c-1.6-0.7-3-1.5996-3-2.0996 0-0.4-1.8-1.3004-4-1.9004s-4-1.5004-4-1.9004c0-2.9-31.6-16.1-38.5-16.1-1.4 0-4.2008-0.69961-6.3008-1.5996-6.7-2.8-26.199-6.6-43.699-8.5-41.7-4.5-59.3-5.1996-120.5-5.0996zm11.5 48.699 26.5 0.19922c25.1 0.1 37.4 0.90078 57 3.3008 15.7 1.9 31.901 4.4004 37.801 5.9004 2.3 0.6 5.9 1.5004 8 1.9004 2 0.5 4.5992 1.2984 5.6992 1.8984s4.9004 2.1008 8.4004 3.3008c6.9 2.3 21.7 9.4004 23.6 11.4 0.7 0.6 3.1004 2 5.4004 3 2.2 1.1 4.0996 2.1996 4.0996 2.5996s2.3 1.7 5 3c2.8 1.3 5 2.7 5 3 0 0.4 1.4 1.3 3 2 1.7 0.7 3 1.6 3 2s1.4 1.3 3 2c1.7 0.7 3 1.6 3 2s1.3004 1.3 2.9004 2c1.6 0.6 3.2 1.8 3.5 2.5 0.3 0.8 1.9988 2.1996 3.7988 3.0996s3.7016 2.3 4.1016 3c0.4 0.8 2.2 2.1 4 3s3.6 2.3 4 3c0.4 0.8 2.2 2.1 4 3s3.6 2.3 4 3c0.4 0.8 2.0992 2.1004 3.6992 2.9004s4.0008 2.5008 5.3008 3.8008c1.3 1.2 2.9984 2.6992 3.8984 3.1992 0.9 0.6 1.8016 2.7008 2.1016 4.8008 0.5 3.5 0.29844 3.9992-2.6016 5.6992-12.8 7.8-16.5 13.7-17.6 29l-0.59961 7.5-7 0.30078c-3.8 0.1-7.7-0.20078-8.5-0.80078-0.8-0.5-4.3008-1-7.8008-1-3.8 0-7.4984-0.59961-9.3984-1.5996-1.7-0.9-6.3012-2.6008-10.201-3.8008-6.7-2.2-7.1004-2.3992-6.9004-5.1992 0-1.6 2.5008-9.6996 5.3008-18.1 5.8-16.7 5.9-19.301 1-21.301-5.2-2.2-8.0992-0.09922-12.199 8.8008-6.3 13.5-11.6 25.6-13.4 30.5-1.3 3.7-2.1008 4.5996-3.3008 4.0996-0.9-0.4-5.0988-1.0996-9.2988-1.5996-4.3-0.4-11.5-1.3008-16-1.8008-14-1.8-35.901-4.2-53.801-6-5.2-0.5-13.5-1.4-18.5-2-13.9-1.5-29.2-3.0008-38.5-3.8008l-8.5-0.69922-0.69922-13.5c-0.4-7.4-1.2008-21.6-1.8008-31.5-0.5-9.9-1.4-24.1-2-31.5s-1.1008-16.4-1.3008-20l-0.19922-6.5zm-25 2 0.80078 27.5c1.3 42.7 1.3996 65.299 0.09961 65.699-0.6 0.2-2.1008-0.49961-3.3008-1.5996s-3.5992-2.2996-5.1992-2.5996c-1.6-0.4-2.9004-1-2.9004-1.5 0-1.1-18.6-7.1996-25-8.0996-9.2-1.3-14.2-2.6-15.1-4-2-2.9 1.8004-29.8 4.9004-35.6 0.7-1.2 2.5988-6.4 4.2988-11.5 2.8-8.8 3.4008-9.7008 9.8008-15.801 11.3-10.7 14-12.001 26.1-12.301l5.5-0.19922z" stroke-width=".1"/><style>@media(prefers-color-scheme:dark){rect{display:none}path{fill:#fff}}</style></svg>
